<?xml version="1.0" encoding="UTF-8"?>
<svg id="Layer_2" data-name="Layer 2" xmlns="http://www.w3.org/2000/svg" viewBox="0 0 1755.09 941">
  <defs>
    <style>
      .cls-1 {
        fill: #3fb94e;
      }

      .cls-2 {
        fill: #2f52c2;
      }
    </style>
  </defs>
  <g id="Layer_1-2" data-name="Layer 1">
    <g>
      <path class="cls-1" d="M361.81,517.53L504.83,2.1l215.36-.02s168.31-.03,250.09-.03c65.13,0,137.51,14.39,165.3,80.21,13.88,32.86,15.7,90.43,2.31,123.54-16.98,41.97-59.88,58.69-102.86,58.95-1.16.15-1.08,4.12,1.1,4.84,4.49,1.48,12.4,1.85,17.75,3.24,60.69,15.77,78.4,59.3,88.03,116.83L1204.38.01h199.89s37.46,286.82,37.46,286.82l3.55-.56L1556.19,0h198.9l-53.47,515.52h-139.43l39.98-350.68-4.53-.06-113.59,288.12-.78,1.22-125.98.46-36.99-289.73h-6.99s-51.47,350.67-51.47,350.67h-254.37c-.16-3.13.25-6.35-.01-9.48-2.46-29.66-4.05-62.65-8.11-91.8-5.84-41.96-21.7-57.36-64.3-59.61-17.86-.94-51.03-2.01-68.06,0-1.45.17-2.57.12-3.45,1.55v161.35h-146.92l-26.12-111.77-153.32-.2-27.45,111.96h-147.92ZM562.71,294.73h101.95l-46.59-196.88-9.34.11-46.02,196.77ZM863.55,243.78c26.37-1.25,54.25,1.68,80.45,0,49.78-3.2,60.76-31.68,57.52-77.46-2.46-34.84-24.78-48.43-57.47-50.45-26.22-1.62-54.11,1.29-80.5.04v127.88Z"/>
      <g>
        <polygon class="cls-1" points="365.81 2 365.81 124.89 154.42 124.89 152.92 126.39 152.92 227.79 359.81 227.79 359.81 350.68 152.92 350.68 152.92 517.53 8 517.53 8 2 365.81 2"/>
        <path class="cls-2" d="M0,931.14v-370.66h178.4c79.91,5.05,132.59,47.61,139.43,129.39,2.72,32.57,2.65,77.27,0,109.88-7.02,86.46-61.83,127.11-145.42,131.38H0ZM103.95,843.22h59.47c2.03,0,11.16-2.47,13.71-3.28,21.76-6.88,33.17-27.11,34.8-49.13,1.87-25.19,1.86-66.79,0-91.99-1.76-23.91-20.3-51.41-46.51-51.41h-61.47v195.82Z"/>
      </g>
      <g>
        <g>
          <polygon class="cls-2" points="1483.23 560.49 1483.23 698.36 1596.67 698.36 1598.17 696.86 1598.17 560.49 1703.11 560.49 1703.11 931.14 1598.17 931.14 1598.17 786.78 1596.67 785.28 1483.23 785.28 1483.23 931.14 1377.28 931.14 1377.28 560.49 1483.23 560.49"/>
          <polygon class="cls-2" points="1333.31 560.49 1333.31 647.41 1234.36 647.41 1234.36 931.14 1128.41 931.14 1128.41 647.41 1029.46 647.41 1029.46 560.49 1333.31 560.49"/>
        </g>
        <g>
          <path class="cls-2" d="M996.47,663.39c-38.86-16.75-82.74-26.63-125.42-23.97-12.29.77-32.84,3.32-37.21,16.76-7.66,23.6,19.13,33.51,36.18,40.2,57.96,22.74,137.68,31.97,143.43,109.39,6.64,89.47-43.44,128.91-128.38,133.41-49.67,2.63-99.67-4.18-146.24-21.25l-9.21-94.69c23.21,7.32,45.96,16.64,69.92,21.51,22.19,4.51,81.1,10.35,98.89-4.12,10.5-8.54,10.94-25.79,1.63-35.42-13.02-13.46-64.84-26.42-84.75-34.18-61.96-24.12-96.09-54.04-88.69-126.12,11.25-109.57,161.92-104.09,239.63-78.7,3.71,1.21,19.83,6.56,21,8.98l9.21,88.2Z"/>
          <path class="cls-2" d="M651.31,899.82c-42.05,41.38-119.45,46.73-174.74,37-74.67-13.15-115.71-63.83-119.79-139.01-1.62-29.9-1.63-70.06.05-99.94,6.37-112.98,89.83-154.88,194.38-145.36,85.19,7.75,136.8,59.19,141.48,145.31,1.64,30.18,1.68,70.83,0,100.99-2.01,36.11-15.31,75.37-41.37,101.01ZM518.53,637.71c-37.84,2.87-52.7,28.73-54.81,64.1-1.6,26.78-1.67,65.22.05,91.95,2.18,33.86,18.81,58.01,54.47,60.44,40.8,2.78,64.78-18.98,67.49-59.39,1.81-26.93,1.67-66.99,0-94-2.54-41.15-24.09-66.37-67.21-63.1Z"/>
        </g>
      </g>
    </g>
  </g>
</svg>