<svg width="285" height="130" viewBox="0 0 285 130" fill="none" xmlns="http://www.w3.org/2000/svg">
<path d="M24.6853 94.4362L42.7497 42.8706H60.7672L31.6296 111.187H20.0402L24.6853 94.4362ZM24.1223 42.8706L26.2337 95.9845L25.7645 111.187H14.6444L6.99634 42.8706H24.1223ZM84.9781 57.979L63.6293 111.187H46.3626L78.6439 42.8706H89.5294L84.9781 57.979ZM85.5412 111.187L82.5383 56.3837L82.9136 42.8706H93.283L101.916 111.187H85.5412ZM90.374 85.709L88.1218 98.4244H59.3126L61.5648 85.709H90.374ZM135.371 42.8706L123.547 111.187H107.875L119.746 42.8706H135.371ZM152.825 111.187H139.734L142.08 98.5182L153.341 98.6121C156.657 98.6434 159.222 97.8614 161.036 96.2661C162.85 94.6708 164.18 92.6063 165.024 90.0726C165.9 87.5389 166.542 84.88 166.948 82.0961L168.403 71.6797C168.653 70.147 168.841 68.4735 168.966 66.6593C169.122 64.845 169.075 63.1246 168.825 61.498C168.575 59.8402 167.933 58.4795 166.901 57.4159C165.9 56.3211 164.321 55.7268 162.162 55.633L149.165 55.586L151.371 42.8706L162.725 42.9175C166.76 43.0114 170.248 43.8559 173.189 45.4512C176.16 47.0152 178.537 49.1423 180.32 51.8324C182.135 54.5225 183.37 57.5723 184.027 60.9819C184.715 64.3914 184.825 67.973 184.356 71.7267L182.854 82.1899C182.291 86.2251 181.228 90.01 179.664 93.5447C178.1 97.0794 176.051 100.176 173.517 102.835C170.983 105.494 167.98 107.574 164.508 109.075C161.036 110.546 157.142 111.249 152.825 111.187ZM160.802 42.8706L148.931 111.187H133.353L145.13 42.8706H160.802ZM207.957 42.8706L211.288 72.3836L224.942 42.8706H242.349L216.965 87.445L212.93 111.187H196.93L201.341 85.8497L191.628 42.9175L207.957 42.8706ZM262.431 57.979L241.082 111.187H223.816L256.097 42.8706H266.983L262.431 57.979ZM262.994 111.187L259.991 56.3837L260.367 42.8706H270.736L279.37 111.187H262.994ZM267.827 85.709L265.575 98.4244H236.766L239.018 85.709H267.827Z" fill="#FF8600"/>
<path d="M227.399 29.9107L226.597 35H209.92L210.624 30.4588L219.335 21.0436C219.818 20.4825 220.307 19.8626 220.803 19.1841C221.299 18.4924 221.736 17.7747 222.114 17.0309C222.506 16.274 222.747 15.5172 222.839 14.7603C222.904 14.3558 222.956 13.8729 222.995 13.3118C223.034 12.7376 222.963 12.2352 222.78 11.8046C222.61 11.3609 222.212 11.1326 221.586 11.1195C220.868 11.0804 220.32 11.3348 219.942 11.8829C219.576 12.431 219.322 13.0704 219.178 13.8012C219.048 14.5189 218.956 15.1322 218.904 15.6411L212.64 15.6803C212.719 13.9708 213.175 12.3853 214.011 10.9238C214.859 9.44917 215.981 8.2682 217.377 7.38084C218.774 6.48042 220.372 6.04327 222.173 6.06937C223.804 6.09547 225.174 6.45433 226.284 7.14595C227.406 7.83757 228.235 8.79018 228.77 10.0038C229.305 11.2174 229.507 12.6267 229.376 14.2318C229.259 15.4323 228.965 16.5546 228.496 17.5986C228.026 18.6425 227.439 19.6212 226.734 20.5347C226.029 21.4481 225.272 22.329 224.463 23.1772C223.654 24.0254 222.871 24.8606 222.114 25.6827L219.061 29.8716L227.399 29.9107ZM248.422 23.8623L247.541 28.9516H230.707L231.06 24.6061L243.02 6.5H248.285L241.395 15.9739L237.128 23.8231L248.422 23.8623ZM249.42 6.5L244.468 35H238.185L243.117 6.5H249.42ZM264.629 6.5L251.632 37.4468H247.052L260.049 6.5H264.629ZM282.833 6.5L282.227 10.317L270.11 35H263.259L275.337 11.5893H264.884L265.706 6.5H282.833Z" fill="#27187E"/>
<path d="M0 4.38452H202.945V35.0768H3.43975L0 4.38452Z" fill="#27187E"/>
</svg>
